<?xml version="1.0" encoding="UTF-8"?>
<svg enable-background="new 0 0 2375.74 1711.121" version="1.1" viewBox="0 0 2375.74 1711.121" xml:space="preserve" xmlns="http://www.w3.org/2000/svg">
	<path d="m503.92 690.08s-80.203-405.08 17.259-634.52c0 0 207.11 429.44 345.18 445.68l-362.44 188.83z"/>
	<path d="m1959.1 690.08s80.203-405.08-17.259-634.52c0 0-207.11 429.44-345.18 445.68l362.44 188.83z"/>
	<path d="m1006.5 573.33c158.04 83.925 316.07 83.925 474.11 0-95.014 121.96-175.17 251.96-237.06 391.88-62.698-132.84-141.14-263.54-237.06-391.88z"/>
	<path d="m82.596 854.54c-27.287 305.42 45.356 569.25 273.1 768.53l117.19-239.59 196.74 207.11 56.634-177.66 182.74 210.15 137.06-209.14 197.46 241.62 198.48-262.94 135.02 195.94 171.57-171.57 69.036 139.09 93.401-203.05 79.078 156.34 143.26-213.2 81.218 217.26c109.7-222.67 100.66-495.38 37.563-790.86-10.308 165.38-49.919 313.24-144.16 428.43l-55.837-197.97-148.22 236.04-92.386-191.37-144.16 249.75-96.447-282.23-307.61 375.64-306.6-347.21-90.355 318.78-276.14-297.46-65.99 245.68-196.95-305.58-57.868 281.22c-91.346-83.399-147.53-219.81-186.8-381.73z"/>
</svg>
